<?xml version="1.0" standalone="no"?>
<!DOCTYPE svg PUBLIC "-//W3C//DTD SVG 20010904//EN"
 "http://www.w3.org/TR/2001/REC-SVG-20010904/DTD/svg10.dtd">
<svg version="1.0" xmlns="http://www.w3.org/2000/svg"
 width="771.000000pt" height="771.000000pt" viewBox="0 0 771.000000 771.000000"
 preserveAspectRatio="xMidYMid meet">
<metadata>
Created by potrace 1.14, written by Peter Selinger 2001-2017
</metadata>
<g transform="translate(0.000000,771.000000) scale(0.100000,-0.100000)"
fill="#000000" stroke="none">
<path d="M3737 7654 c-1 -1 -48 -5 -105 -9 -57 -3 -113 -8 -125 -10 -12 -2
-44 -7 -72 -10 -27 -3 -57 -7 -65 -10 -8 -2 -33 -6 -55 -9 -58 -7 -207 -41
-310 -71 -290 -84 -554 -212 -724 -350 -128 -104 -223 -199 -322 -322 -51 -62
-136 -196 -184 -285 -126 -239 -200 -493 -240 -820 -3 -26 -9 -73 -13 -105 -9
-78 -9 -3455 1 -3560 60 -659 284 -1142 687 -1483 36 -30 67 -58 70 -61 15
-18 199 -134 280 -176 246 -129 615 -237 910 -268 30 -3 69 -8 85 -11 83 -13
484 -20 605 -9 25 2 79 7 120 10 85 7 233 30 330 50 37 8 77 16 90 19 236 48
559 181 748 307 492 329 787 842 858 1494 3 33 8 69 10 80 14 73 17 451 17
1815 0 1379 -3 1745 -17 1830 -2 14 -7 52 -11 85 -26 230 -92 487 -176 677
-155 355 -428 665 -753 857 -117 69 -350 172 -446 197 -8 2 -46 13 -85 25 -90
27 -361 85 -445 94 -36 4 -73 9 -83 11 -62 11 -568 28 -580 18z m329 -1178
c382 -30 693 -240 823 -556 12 -30 26 -64 31 -75 23 -53 58 -231 67 -345 4
-47 7 -796 7 -1665 0 -1407 -2 -1592 -17 -1690 -65 -440 -271 -707 -639 -830
-147 -49 -262 -64 -453 -60 -88 2 -171 6 -185 9 -14 3 -41 9 -60 12 -124 21
-302 95 -395 164 -62 46 -141 122 -182 175 -86 112 -169 320 -189 472 -2 21
-7 49 -9 63 -16 84 -18 325 -18 1700 0 1353 3 1650 18 1741 2 13 6 42 10 64
11 76 66 249 101 319 151 301 435 477 809 503 50 3 91 7 93 8 3 2 87 -2 188
-9z"/>
<path d="M3868 4335 c-2 -2 -24 -6 -50 -9 -183 -25 -327 -161 -362 -344 -55
-289 95 -542 352 -592 55 -11 189 -9 242 3 165 37 295 171 336 347 8 33 12 92
9 145 -4 101 -6 112 -31 175 -51 129 -155 221 -292 255 -52 13 -196 27 -204
20z"/>
</g>
</svg>
